<svg xmlns="http://www.w3.org/2000/svg" viewBox="0 0 100 100">
  <path fill-rule="evenodd" d="M671,83.9973235 C671,81.7896627 672.79953,80 674.997324,80 L767.002676,80 C769.210337,80 771,81.7995299 771,83.9973235 L771,176.002676 C771,178.210337 769.20047,180 767.002676,180 L674.997324,180 C672.789663,180 671,178.20047 671,176.002676 L671,83.9973235 Z M719.702717,93.8996139 L692.520742,93.8996139 L682.969112,166.100386 L702.429442,166.100386 L703.545287,153.122977 L710.284989,153.122977 L711.222298,166.100386 L730.459459,166.100386 L719.702717,93.8996139 Z M709.996139,140.23166 L703.432432,140.23166 C703.918635,133.874335 705.134124,123.835825 707.078936,110.11583 C708.051342,122.061688 709.023733,132.100198 709.996139,140.23166 Z M759.030888,93.8996139 L740.28608,93.8996139 L740.28608,144.694351 C740.28608,147.42958 740.226714,149.272859 740.107982,150.224243 C739.989249,151.175628 739.544009,151.978346 738.772247,152.632422 C738.000486,153.286499 736.94675,153.613532 735.611009,153.613532 C735.106395,153.613532 734.290121,153.568937 733.162162,153.479745 L733.162162,166.100386 L742.556829,166.100386 C746.712468,166.100386 749.82173,165.780785 751.884708,165.141574 C753.947686,164.502363 755.580234,163.350314 756.782402,161.685391 C757.984569,160.020469 758.65985,158.154892 758.808266,156.088605 C758.956681,154.022318 759.030888,149.376957 759.030888,142.152384 L759.030888,93.8996139 Z" transform="translate(-671 -80)"/>
</svg>
