<?xml version="1.0" standalone="no"?>
<!DOCTYPE svg PUBLIC "-//W3C//DTD SVG 20010904//EN"
 "http://www.w3.org/TR/2001/REC-SVG-20010904/DTD/svg10.dtd">
<svg version="1.0" xmlns="http://www.w3.org/2000/svg"
 width="270.000000pt" height="270.000000pt" viewBox="0 0 270.000000 270.000000"
 preserveAspectRatio="xMidYMid meet">
<metadata>
Created by potrace 1.11, written by Peter Selinger 2001-2013
</metadata>
<g transform="translate(0.000000,270.000000) scale(0.100000,-0.100000)"
fill="#000000" stroke="none">
<path d="M75 2691 c-11 -5 -31 -21 -45 -36 l-25 -27 -3 -1265 c-2 -1138 -1
-1268 14 -1298 33 -69 -54 -65 1332 -65 841 0 1258 3 1278 10 16 6 38 23 49
38 20 27 20 43 20 1304 l0 1278 -33 32 -32 33 -1268 2 c-697 1 -1276 -2 -1287
-6z m1238 -371 c3 -3 8 -27 11 -55 7 -50 33 -228 41 -275 2 -14 7 -45 10 -70
3 -25 10 -70 15 -100 5 -30 12 -75 15 -100 6 -46 13 -90 39 -260 8 -52 17
-111 20 -130 3 -19 14 -100 26 -180 12 -80 24 -158 26 -174 2 -16 15 -104 28
-195 14 -91 28 -185 31 -207 3 -23 12 -76 19 -118 7 -42 10 -77 7 -77 -21 -4
-511 -3 -512 1 -4 13 -7 53 -14 150 -4 58 -9 114 -10 125 -1 11 -3 32 -4 46
-1 26 -1 26 -91 25 -52 -1 -90 -5 -91 -11 -1 -5 -2 -21 -4 -35 -1 -14 -5 -65
-9 -115 -8 -112 -17 -179 -23 -185 -2 -3 -121 -5 -263 -5 -224 0 -258 2 -255
15 1 8 6 40 9 70 4 30 8 66 10 80 3 14 7 48 11 75 6 51 7 58 24 185 6 41 13
93 15 115 3 22 12 92 21 155 15 116 21 162 31 235 2 22 7 51 9 65 5 30 23 167
30 230 5 45 13 104 20 150 2 14 6 50 10 80 3 30 8 66 10 80 3 14 7 45 10 70 3
25 7 56 10 70 2 14 6 45 9 70 8 66 16 132 21 155 2 11 4 27 4 35 1 13 47 15
365 15 201 0 367 -2 369 -5z m1062 -840 c-1 -794 -2 -848 -19 -902 -36 -111
-122 -177 -252 -194 -32 -4 -141 -8 -241 -8 l-183 -2 -1 36 c-1 48 -1 227 0
270 l1 36 48 -2 c27 -1 63 5 80 13 64 31 62 3 62 836 0 519 3 756 11 759 5 2
119 3 252 3 l242 0 0 -845z"/>
<path d="M969 1854 c0 -5 -2 -18 -3 -29 -2 -11 -6 -45 -10 -75 -8 -57 -11 -79
-20 -145 -3 -22 -8 -62 -11 -90 -3 -27 -7 -61 -10 -75 -2 -14 -7 -50 -10 -80
-4 -30 -8 -66 -10 -80 -3 -19 -15 -146 -17 -180 -1 -22 11 -26 88 -26 l86 -1
-5 51 c-15 132 -36 348 -42 416 -4 41 -8 86 -10 100 -2 14 -7 68 -10 120 -6
82 -13 124 -16 94z"/>
</g>
</svg>
