<svg xmlns="http://www.w3.org/2000/svg" viewBox="0 0 100 100"><path fill-rule="evenodd" d="M0 3.997C0 1.79 1.8 0 3.997 0h92.006C98.21 0 100 1.8 100 3.997v92.006c0 2.207-1.8 3.997-3.997 3.997H3.997A4.004 4.004 0 0 1 0 96.003V3.997zM48.703 13.9H21.52l-9.552 72.2h19.46l1.116-12.977h6.74l.937 12.977H59.46L48.703 13.9zm-9.707 46.332h-6.564c.487-6.358 1.702-16.396 3.647-30.116.972 11.946 1.945 21.984 2.917 30.116zM88.031 13.9H69.286v50.794c0 2.736-.06 4.579-.178 5.53-.119.952-.564 1.754-1.336 2.408-.772.654-1.825.982-3.161.982-.505 0-1.32-.045-2.449-.134V86.1h9.395c4.155 0 7.265-.32 9.328-.958 2.063-.64 3.695-1.792 4.897-3.457a10.686 10.686 0 0 0 2.026-5.596c.149-2.067.223-6.712.223-13.937V13.9z"/></svg>