<svg version="1" xmlns="http://www.w3.org/2000/svg" width="360" height="360" viewBox="0 0 270.000000 270.000000"><path d="M7.5.9C6.4 1.4 4.4 3 3 4.5L.5 7.2.2 133.7C0 247.5.1 260.5 1.6 263.5c3.3 6.9-5.4 6.5 133.2 6.5 84.1 0 125.8-.3 127.8-1 1.6-.6 3.8-2.3 4.9-3.8 2-2.7 2-4.3 2-130.4V7l-3.3-3.2L263 .5 136.2.3C66.5.2 8.6.5 7.5.9zM131.3 38c.3.3.8 2.7 1.1 5.5.7 5 3.3 22.8 4.1 27.5.2 1.4.7 4.5 1 7 .3 2.5 1 7 1.5 10s1.2 7.5 1.5 10c.6 4.6 1.3 9 3.9 26 .8 5.2 1.7 11.1 2 13 .3 1.9 1.4 10 2.6 18 1.2 8 2.4 15.8 2.6 17.4.2 1.6 1.5 10.4 2.8 19.5 1.4 9.1 2.8 18.5 3.1 20.7.3 2.3 1.2 7.6 1.9 11.8.7 4.2 1 7.7.7 7.7-2.1.4-51.1.3-51.2-.1-.4-1.3-.7-5.3-1.4-15-.4-5.8-.9-11.4-1-12.5-.1-1.1-.3-3.2-.4-4.6-.1-2.6-.1-2.6-9.1-2.5-5.2.1-9 .5-9.1 1.1-.1.5-.2 2.1-.4 3.5-.1 1.4-.5 6.5-.9 11.5-.8 11.2-1.7 17.9-2.3 18.5-.2.3-12.1.5-26.3.5-22.4 0-25.8-.2-25.5-1.5.1-.8.6-4 .9-7 .4-3 .8-6.6 1-8 .3-1.4.7-4.8 1.1-7.5.6-5.1.7-5.8 2.4-18.5.6-4.1 1.3-9.3 1.5-11.5.3-2.2 1.2-9.2 2.1-15.5 1.5-11.6 2.1-16.2 3.1-23.5.2-2.2.7-5.1.9-6.5.5-3 2.3-16.7 3-23 .5-4.5 1.3-10.4 2-15 .2-1.4.6-5 1-8 .3-3 .8-6.6 1-8 .3-1.4.7-4.5 1-7 .3-2.5.7-5.6 1-7 .2-1.4.6-4.5.9-7 .8-6.6 1.6-13.2 2.1-15.5.2-1.1.4-2.7.4-3.5.1-1.3 4.7-1.5 36.5-1.5 20.1 0 36.7.2 36.9.5zm106.2 84c-.1 79.4-.2 84.8-1.9 90.2-3.6 11.1-12.2 17.7-25.2 19.4-3.2.4-14.1.8-24.1.8l-18.3.2-.1-3.6c-.1-4.8-.1-22.7 0-27l.1-3.6 4.8.2c2.7.1 6.3-.5 8-1.3 6.4-3.1 6.2-.3 6.2-83.6 0-51.9.3-75.6 1.1-75.9.5-.2 11.9-.3 25.2-.3h24.2V122z"/><path d="M96.9 84.6c0 .5-.2 1.8-.3 2.9-.2 1.1-.6 4.5-1 7.5-.8 5.7-1.1 7.9-2 14.5-.3 2.2-.8 6.2-1.1 9-.3 2.7-.7 6.1-1 7.5-.2 1.4-.7 5-1 8-.4 3-.8 6.6-1 8-.3 1.9-1.5 14.6-1.7 18-.1 2.2 1.1 2.6 8.8 2.6l8.6.1-.5-5.1c-1.5-13.2-3.6-34.8-4.2-41.6-.4-4.1-.8-8.6-1-10-.2-1.4-.7-6.8-1-12-.6-8.2-1.3-12.4-1.6-9.4z"/></svg>