<svg xmlns="http://www.w3.org/2000/svg" width="970" height="278" viewBox="0 0 970 278"><g fill="none" fill-rule="evenodd"><path fill="#EEE" d="M0 135h970v10H0z"/><path class="skill__meter" fill="#87A1B5" d="M0 135h922v10H0z"/><path class="skill__path" stroke="#879DA3" opacity=".4" d="M922 130V95H707V80"/><path class="skill__meter" fill="#8A8184" d="M0 135h824v10H0z"/><path class="skill__path" stroke="#879DA3" opacity=".4" d="M824 130v-15.323H268V80"/><path class="skill__meter" fill="#735950" d="M0 135h630v10H0z"/><path class="skill__path" stroke="#879DA3" opacity=".4" d="M630 150v10.037h174.226V200"/><path class="skill__meter" fill="#DC8D6E" d="M0 135h582v10H0z"/><path class="skill__path" stroke="#879DA3" opacity=".4" d="M582 150v35.929h-95V200"/><path class="skill__meter" fill="#FFA47F" d="M0 135h388v10H0z"/><path class="skill__path" stroke="#879DA3" opacity=".4" d="M388.111 150v16.021H168V200"/><g class="skill__label"><text class="skill__label--strong" transform="translate(146 -2)"><tspan x="13.424" y="15">UI/UX Prototyping &amp; Design</tspan></text><text class="skill__label--small" fill="#4A5F66" transform="translate(146 -2)"><tspan x="36.681" y="42">Sketch, Adobe Photoshop, </tspan> <tspan x="69.217" y="66">Adobe Illustrator</tspan></text></g><g class="skill__label"><text class="skill__label--strong" transform="translate(596 -2)"><tspan x="16.428" y="15">Front-end Development</tspan></text><text class="skill__label--small" fill="#4A5F66" transform="translate(596 -2)"><tspan x="37.937" y="42">HTML, CSS, JavaScript, </tspan> <tspan x="80.945" y="66">AngularJS</tspan></text></g><g class="skill__label"><text class="skill__label--strong" transform="translate(57 205)"><tspan x="18.808" y="15">Database Architecture</tspan></text><text class="skill__label--small" fill="#4A5F66" transform="translate(57 205)"><tspan x="14.407" y="42">MySQL, PostgreSQL, MSSQL</tspan></text></g><g class="skill__label"><text class="skill__label--strong" transform="translate(379 205)"><tspan x="17.432" y="15">Server Administration</tspan></text><text class="skill__label--small" fill="#4A5F66" transform="translate(379 205)"><tspan x="13.5" y="42">CENTOS, Redhat Enterprise, </tspan> <tspan x="26.989" y="66">Ubuntu, Apache, NGINX</tspan></text></g><g class="skill__label"><text class="skill__label--strong" transform="translate(695 205)"><tspan x="13.62" y="15">Back-end Development</tspan></text><text class="skill__label--small" fill="#4A5F66" transform="translate(695 205)"><tspan x="45.747" y="42">PHP, Ruby, NodeJS</tspan></text></g></g></svg>